<?xml version="1.0" encoding="UTF-8" standalone="no"?>
<svg
   xmlns:dc="http://purl.org/dc/elements/1.1/"
   xmlns:cc="http://creativecommons.org/ns#"
   xmlns:rdf="http://www.w3.org/1999/02/22-rdf-syntax-ns#"
   xmlns:svg="http://www.w3.org/2000/svg"
   xmlns="http://www.w3.org/2000/svg"
   version="1.1"
   id="Layer_1"
   x="0px"
   y="0px"
   width="200"
   height="200"
   viewBox="0 0 200 200"
   enable-background="new 0 0 19.535 45.383"
   xml:space="preserve"><metadata
     id="metadata3390"><rdf:RDF><cc:Work
         rdf:about=""><dc:format>image/svg+xml</dc:format><dc:type
           rdf:resource="http://purl.org/dc/dcmitype/StillImage" /><dc:title></dc:title></cc:Work></rdf:RDF></metadata><defs
     id="defs3388" /><path
     d="m 97.137497,0.01949587 c 0,48.96002713 0,97.84513013 0,146.80956413 -5.275466,-0.45836 -8.730741,0.90348 -13.900434,0.59938 2.639936,3.53902 6.38609,6.85327 9.365385,10.88589 2.957257,3.99295 5.777891,8.32528 7.549602,13.29663 4.94933,-9.03924 10.63908,-17.39977 17.83169,-24.18252 -5.7206,0.37021 -9.64304,-1.05333 -15.4033,-0.59938 0,-48.960027 0,-97.849537 0,-146.80956413 3.82108,0 7.64215,0 11.46764,0 -0.37462,2.03173753 -2.97489,4.25298633 -3.93567,6.62408133 -1.8246,4.7465968 -1.10622,12.9572848 -0.90348,19.6606968 0.60379,18.382597 0.58175,37.060479 0,55.888207 -0.20274,7.047176 -1.20318,12.692851 4.83915,14.464561 6.7607,2.031737 25.23585,0.22477 28.99963,-2.41076 0,7.567228 0,15.138868 0,22.666438 -1.31335,0.45835 -2.84266,-1.61306 -4.83915,-2.10667 -6.36846,-1.58219 -26.90619,-1.13266 -28.69994,3.61835 -1.07096,2.93522 -1.39269,13.67125 0.60379,16.60648 3.46409,5.08595 13.8784,2.25651 21.14594,2.75012 -0.56413,2.5606 1.37506,5.49582 0.62142,9.03925 -0.65668,2.93081 -8.21069,8.50596 -10.28209,10.8374 -6.73867,7.69063 -11.97447,16.72547 -15.69859,26.59328 -1.90833,4.97578 -2.69723,10.32617 -5.44294,15.74707 -3.032182,-1.13266 -2.714861,-5.05069 -3.314246,-7.26754 -4.424867,-16.31119 -11.524931,-29.94279 -23.257004,-40.18521 -1.842225,-1.58661 -4.720152,-3.54342 -5.121212,-5.12562 -1.000444,-3.72853 1.207583,-7.00311 0.586163,-9.63863 11.185575,0.44953 21.50733,2.22125 21.754135,-9.11858 0.163068,-8.2812 -0.868227,-14.27064 -9.942733,-14.45575 -8.466307,-0.1807 -20.141085,-0.10577 -24.208968,2.71045 0,-7.45264 0,-14.90969 0,-22.366739 1.2781,-0.528869 3.027774,1.732046 5.438534,2.111069 5.420905,0.903484 19.114199,1.242841 23.279041,0 7.232281,-2.111069 4.834741,-11.639521 4.834741,-21.7321 0,-17.404189 0.20714,-39.810597 0.286471,-54.649773 C 90.813108,15.682826 90.337126,9.3584369 88.962067,5.7445003 88.252502,3.827351 86.348574,1.8308714 85.951923,0.3235954 89.605525,0.17374926 93.179796,-0.09509237 97.137497,0.01949587 Z"
     id="path3384"
     style="fill:#ffffff;fill-opacity:1" /></svg>