<?xml version="1.0" encoding="UTF-8" standalone="no"?>
<svg
   xmlns:dc="http://purl.org/dc/elements/1.1/"
   xmlns:cc="http://creativecommons.org/ns#"
   xmlns:rdf="http://www.w3.org/1999/02/22-rdf-syntax-ns#"
   xmlns:svg="http://www.w3.org/2000/svg"
   xmlns="http://www.w3.org/2000/svg"
   id="svg2"
   fill="black"
   stroke="none"
   height="200"
   width="200"
   version="1.1">
  <metadata
     id="metadata10">
    <rdf:RDF>
      <cc:Work
         rdf:about="">
        <dc:format>image/svg+xml</dc:format>
        <dc:type
           rdf:resource="http://purl.org/dc/dcmitype/StillImage" />
        <dc:title></dc:title>
      </cc:Work>
    </rdf:RDF>
  </metadata>
  <defs
     id="defs8" />
  <path
     id="path4"
     d="m 97.582949,6.7971296 0,136.0528004 c -4.888932,-0.42479 -8.091038,0.83727 -12.881946,0.55546 2.446507,3.27971 5.918179,6.35112 8.679181,10.08828 2.740579,3.70038 5.354544,7.71529 6.996436,12.32238 4.5867,-8.37693 9.85956,-16.12488 16.52516,-22.41066 -5.30144,0.34308 -8.93648,-0.97615 -14.27469,-0.55546 l 0,-136.0528004 10.6274,0 c -0.34717,1.8828717 -2.75692,3.9413694 -3.64731,6.1387334 -1.6909,4.398812 -1.02516,12.007902 -0.83728,18.220153 0.55955,17.0357 0.53913,34.34505 0,51.793267 -0.18788,6.530828 -1.11501,11.762843 4.48459,13.40474 6.26534,1.882873 23.38682,0.208301 26.87482,-2.234124 l 0,21.005661 c -1.21712,0.42477 -2.63438,-1.49487 -4.48458,-1.95231 -5.90184,-1.46627 -24.93477,-1.04967 -26.5971,3.35323 -0.99248,2.72016 -1.29064,12.66956 0.55955,15.38972 3.21029,4.71331 12.86153,2.09118 19.59658,2.54862 -0.5228,2.37299 1.2743,5.09314 0.57588,8.37694 -0.60855,2.71608 -7.60909,7.88273 -9.52872,10.04335 -6.24492,7.12713 -11.09709,15.49999 -14.54834,24.64479 -1.76851,4.6112 -2.4996,9.56956 -5.04414,14.59327 -2.492213,-4.9162 -3.976595,-12.58315 -4.532061,-14.63757 -3.651225,-10.17231 -8.096263,-17.07485 -15.29836,-24.09493 -1.707246,-1.47036 -8.718818,-7.85302 -9.539925,-9.99344 -0.92714,-3.45534 1.119104,-6.48999 0.543215,-8.93241 10.366006,0.4166 19.931484,2.0585 20.160205,-8.45046 0.151121,-7.67443 -0.804612,-13.22503 -9.214226,-13.39657 -7.845979,-0.16747 -18.665345,-0.098 -22.435172,2.51185 l 0,-20.727923 c 1.184453,-0.490119 2.805928,1.605138 5.04005,1.95639 5.023715,0.837282 17.713698,1.151775 21.573382,0 6.702371,-1.95639 4.480498,-10.786691 4.480498,-20.139784 0,-16.12898 1.277243,-33.793829 0.265481,-50.645573 -0.271214,-4.517304 -0.288491,-9.16877 -1.694993,-13.470089 -0.595311,-1.82056 -4.076935,-4.3687178 -2.78959,-5.0237134 3.020288,-1.5367094 6.698286,-0.3880104 10.366005,-0.281818 z" />
</svg>
